<svg width="377" height="139" viewBox="0 0 377 139" fill="none" xmlns="http://www.w3.org/2000/svg">
<path d="M23.0098 22.4844V95H5.52832V22.4844H23.0098ZM66.29 22.4844L38.2002 59.2402L21.7646 77.2197L18.5771 61.1826L29.0859 45.2451L44.7246 22.4844H66.29ZM45.6211 95L26.8945 62.3281L40.4912 52.3174L66.29 95H45.6211ZM97.9658 81.4531V59.2402C97.9658 57.7129 97.75 56.4014 97.3184 55.3057C96.8867 54.21 96.2061 53.3633 95.2764 52.7656C94.3467 52.1348 93.1016 51.8193 91.541 51.8193C90.2793 51.8193 89.2002 52.0352 88.3037 52.4668C87.4072 52.8984 86.7266 53.5459 86.2617 54.4092C85.7969 55.2725 85.5645 56.3682 85.5645 57.6963H68.7803C68.7803 55.2061 69.3281 52.8984 70.4238 50.7734C71.5527 48.6152 73.1465 46.7393 75.2051 45.1455C77.2969 43.5518 79.7871 42.3232 82.6758 41.46C85.5977 40.5635 88.8516 40.1152 92.4375 40.1152C96.7207 40.1152 100.539 40.8291 103.893 42.2568C107.279 43.6846 109.952 45.8262 111.911 48.6816C113.87 51.5039 114.85 55.0566 114.85 59.3398V81.4033C114.85 84.9229 115.049 87.5957 115.447 89.4219C115.846 91.2148 116.41 92.792 117.141 94.1533V95H100.307C99.5098 93.3398 98.9121 91.3145 98.5137 88.9238C98.1484 86.5 97.9658 84.0098 97.9658 81.4531ZM100.008 62.0791L100.107 71.0439H92.6865C91.126 71.0439 89.7979 71.2598 88.7021 71.6914C87.6396 72.123 86.7764 72.7207 86.1123 73.4844C85.4814 74.2148 85.0166 75.0449 84.7178 75.9746C84.4521 76.9043 84.3193 77.8838 84.3193 78.9131C84.3193 79.9092 84.5518 80.8057 85.0166 81.6025C85.5146 82.3662 86.1787 82.9639 87.0088 83.3955C87.8389 83.8271 88.7686 84.043 89.7979 84.043C91.6572 84.043 93.2344 83.6943 94.5293 82.9971C95.8574 82.2666 96.8701 81.3867 97.5674 80.3574C98.2646 79.3281 98.6133 78.3652 98.6133 77.4688L102.299 84.3418C101.635 85.6699 100.871 87.0146 100.008 88.376C99.1777 89.7373 98.1318 90.999 96.8701 92.1611C95.6416 93.29 94.1309 94.2197 92.3379 94.9502C90.5449 95.6475 88.3701 95.9961 85.8135 95.9961C82.4932 95.9961 79.4385 95.3154 76.6494 93.9541C73.8936 92.5928 71.6855 90.7002 70.0254 88.2764C68.3652 85.8193 67.5352 82.9971 67.5352 79.8096C67.5352 77.0205 68.0332 74.5303 69.0293 72.3389C70.0586 70.1475 71.6025 68.2881 73.6611 66.7607C75.7197 65.2334 78.3428 64.0713 81.5303 63.2744C84.7178 62.4775 88.4697 62.0791 92.7861 62.0791H100.008ZM141.097 51.4707V115.719H124.312V41.1113H139.951L141.097 51.4707ZM174.167 67.4082V68.4541C174.167 72.3721 173.719 76.0078 172.822 79.3613C171.926 82.7148 170.598 85.6367 168.838 88.127C167.078 90.6172 164.887 92.5596 162.264 93.9541C159.674 95.3154 156.669 95.9961 153.249 95.9961C150.028 95.9961 147.256 95.2822 144.932 93.8545C142.607 92.4268 140.665 90.4512 139.104 87.9277C137.544 85.4043 136.282 82.5156 135.319 79.2617C134.356 76.0078 133.593 72.5713 133.028 68.9521V67.6074C133.593 63.7227 134.356 60.1201 135.319 56.7998C136.282 53.4463 137.544 50.5244 139.104 48.0342C140.665 45.5439 142.591 43.6016 144.882 42.207C147.206 40.8125 149.979 40.1152 153.199 40.1152C156.619 40.1152 159.624 40.7627 162.214 42.0576C164.837 43.3525 167.028 45.2119 168.788 47.6357C170.581 50.0264 171.926 52.8984 172.822 56.252C173.719 59.6055 174.167 63.3242 174.167 67.4082ZM157.383 68.4541V67.4082C157.383 65.3164 157.233 63.4072 156.935 61.6807C156.636 59.9209 156.154 58.3936 155.49 57.0986C154.859 55.8037 154.013 54.8076 152.95 54.1104C151.888 53.4131 150.576 53.0645 149.016 53.0645C147.223 53.0645 145.712 53.3467 144.483 53.9111C143.288 54.4424 142.325 55.2725 141.595 56.4014C140.897 57.4971 140.399 58.875 140.101 60.5352C139.835 62.1621 139.719 64.0713 139.752 66.2627V70.3467C139.686 72.8701 139.935 75.0947 140.499 77.0205C141.063 78.9131 142.043 80.3906 143.438 81.4531C144.832 82.5156 146.725 83.0469 149.115 83.0469C150.709 83.0469 152.037 82.6816 153.1 81.9512C154.162 81.1875 155.009 80.1416 155.64 78.8135C156.271 77.4521 156.719 75.8916 156.984 74.1318C157.25 72.3721 157.383 70.4795 157.383 68.4541ZM213.114 81.9014V41.1113H229.948V95H214.21L213.114 81.9014ZM214.708 70.9443L219.091 70.8447C219.091 74.4639 218.659 77.8174 217.796 80.9053C216.933 83.96 215.654 86.6162 213.961 88.874C212.301 91.1318 210.242 92.8916 207.785 94.1533C205.361 95.3818 202.556 95.9961 199.368 95.9961C196.712 95.9961 194.271 95.6309 192.047 94.9004C189.855 94.1367 187.963 92.958 186.369 91.3643C184.775 89.7373 183.53 87.6621 182.634 85.1387C181.771 82.582 181.339 79.5273 181.339 75.9746V41.1113H198.123V76.0742C198.123 77.2695 198.272 78.2988 198.571 79.1621C198.87 80.0254 199.302 80.7559 199.866 81.3535C200.431 81.918 201.128 82.3496 201.958 82.6484C202.821 82.9141 203.801 83.0469 204.896 83.0469C207.42 83.0469 209.396 82.5156 210.823 81.4531C212.251 80.3906 213.247 78.9463 213.812 77.1201C214.409 75.2939 214.708 73.2354 214.708 70.9443ZM267.451 79.8594C267.451 78.9297 267.136 78.1328 266.505 77.4688C265.907 76.7715 264.845 76.1406 263.317 75.5762C261.79 74.9785 259.648 74.3809 256.893 73.7832C254.27 73.2188 251.796 72.4717 249.472 71.542C247.181 70.6123 245.172 69.4834 243.445 68.1553C241.719 66.8271 240.357 65.25 239.361 63.4238C238.398 61.5977 237.917 59.5059 237.917 57.1484C237.917 54.8574 238.398 52.6992 239.361 50.6738C240.357 48.6152 241.802 46.8057 243.694 45.2451C245.62 43.6514 247.961 42.4062 250.717 41.5098C253.473 40.5801 256.61 40.1152 260.13 40.1152C264.978 40.1152 269.161 40.8623 272.681 42.3564C276.2 43.8174 278.906 45.876 280.799 48.5322C282.725 51.1553 283.688 54.1934 283.688 57.6465H266.903C266.903 56.2852 266.671 55.123 266.206 54.1602C265.774 53.1973 265.061 52.4668 264.064 51.9688C263.068 51.4375 261.74 51.1719 260.08 51.1719C258.918 51.1719 257.855 51.3877 256.893 51.8193C255.963 52.251 255.216 52.8486 254.651 53.6123C254.087 54.376 253.805 55.2725 253.805 56.3018C253.805 57.0322 253.971 57.6963 254.303 58.2939C254.668 58.8584 255.216 59.3896 255.946 59.8877C256.677 60.3525 257.606 60.7842 258.735 61.1826C259.864 61.5479 261.226 61.8799 262.819 62.1787C266.438 62.8428 269.825 63.7891 272.979 65.0176C276.134 66.2461 278.69 67.9893 280.649 70.2471C282.642 72.5049 283.638 75.543 283.638 79.3613C283.638 81.752 283.09 83.96 281.994 85.9854C280.898 87.9775 279.321 89.7373 277.263 91.2646C275.204 92.7588 272.73 93.9209 269.842 94.751C266.953 95.5811 263.699 95.9961 260.08 95.9961C254.934 95.9961 250.584 95.083 247.031 93.2568C243.479 91.3975 240.789 89.0732 238.963 86.2842C237.17 83.4619 236.273 80.6064 236.273 77.7178H251.912C251.979 79.3779 252.377 80.7393 253.107 81.8018C253.871 82.8643 254.884 83.6445 256.146 84.1426C257.407 84.6406 258.868 84.8896 260.528 84.8896C262.056 84.8896 263.317 84.6738 264.313 84.2422C265.343 83.8105 266.123 83.2295 266.654 82.499C267.186 81.7354 267.451 80.8555 267.451 79.8594ZM319.896 41.1113V52.7656H287.423V41.1113H319.896ZM294.246 27.7139H311.03V77.4189C311.03 78.8467 311.196 79.959 311.528 80.7559C311.86 81.5195 312.425 82.0674 313.222 82.3994C314.052 82.6982 315.147 82.8477 316.509 82.8477C317.472 82.8477 318.269 82.8311 318.899 82.7979C319.53 82.7314 320.128 82.6484 320.692 82.5488V94.5518C319.265 95.0166 317.771 95.3652 316.21 95.5977C314.649 95.8633 312.989 95.9961 311.229 95.9961C307.644 95.9961 304.572 95.4316 302.016 94.3027C299.492 93.1738 297.566 91.3975 296.238 88.9736C294.91 86.5498 294.246 83.3955 294.246 79.5107V27.7139ZM354.56 81.4531V59.2402C354.56 57.7129 354.344 56.4014 353.912 55.3057C353.48 54.21 352.8 53.3633 351.87 52.7656C350.94 52.1348 349.695 51.8193 348.135 51.8193C346.873 51.8193 345.794 52.0352 344.897 52.4668C344.001 52.8984 343.32 53.5459 342.855 54.4092C342.391 55.2725 342.158 56.3682 342.158 57.6963H325.374C325.374 55.2061 325.922 52.8984 327.018 50.7734C328.146 48.6152 329.74 46.7393 331.799 45.1455C333.891 43.5518 336.381 42.3232 339.27 41.46C342.191 40.5635 345.445 40.1152 349.031 40.1152C353.314 40.1152 357.133 40.8291 360.486 42.2568C363.873 43.6846 366.546 45.8262 368.505 48.6816C370.464 51.5039 371.443 55.0566 371.443 59.3398V81.4033C371.443 84.9229 371.643 87.5957 372.041 89.4219C372.439 91.2148 373.004 92.792 373.734 94.1533V95H356.9C356.104 93.3398 355.506 91.3145 355.107 88.9238C354.742 86.5 354.56 84.0098 354.56 81.4531ZM356.602 62.0791L356.701 71.0439H349.28C347.72 71.0439 346.392 71.2598 345.296 71.6914C344.233 72.123 343.37 72.7207 342.706 73.4844C342.075 74.2148 341.61 75.0449 341.312 75.9746C341.046 76.9043 340.913 77.8838 340.913 78.9131C340.913 79.9092 341.146 80.8057 341.61 81.6025C342.108 82.3662 342.772 82.9639 343.603 83.3955C344.433 83.8271 345.362 84.043 346.392 84.043C348.251 84.043 349.828 83.6943 351.123 82.9971C352.451 82.2666 353.464 81.3867 354.161 80.3574C354.858 79.3281 355.207 78.3652 355.207 77.4688L358.893 84.3418C358.229 85.6699 357.465 87.0146 356.602 88.376C355.771 89.7373 354.726 90.999 353.464 92.1611C352.235 93.29 350.725 94.2197 348.932 94.9502C347.139 95.6475 344.964 95.9961 342.407 95.9961C339.087 95.9961 336.032 95.3154 333.243 93.9541C330.487 92.5928 328.279 90.7002 326.619 88.2764C324.959 85.8193 324.129 82.9971 324.129 79.8096C324.129 77.0205 324.627 74.5303 325.623 72.3389C326.652 70.1475 328.196 68.2881 330.255 66.7607C332.313 65.2334 334.937 64.0713 338.124 63.2744C341.312 62.4775 345.063 62.0791 349.38 62.0791H356.602Z" fill="black"/>
<rect x="257" y="28" width="8" height="13" fill="black"/>
<rect x="257" y="95" width="8" height="13" fill="black"/>
<path d="M78.9375 132.023C78.9375 131.82 78.9062 131.638 78.8438 131.477C78.7865 131.31 78.6771 131.159 78.5156 131.023C78.3542 130.883 78.1276 130.745 77.8359 130.609C77.5443 130.474 77.1667 130.333 76.7031 130.188C76.1875 130.021 75.6979 129.833 75.2344 129.625C74.776 129.417 74.3698 129.174 74.0156 128.898C73.6667 128.617 73.3906 128.292 73.1875 127.922C72.9896 127.552 72.8906 127.122 72.8906 126.633C72.8906 126.159 72.9948 125.729 73.2031 125.344C73.4115 124.953 73.7031 124.62 74.0781 124.344C74.4531 124.062 74.8958 123.846 75.4062 123.695C75.9219 123.544 76.487 123.469 77.1016 123.469C77.9401 123.469 78.6719 123.62 79.2969 123.922C79.9219 124.224 80.4062 124.638 80.75 125.164C81.099 125.69 81.2734 126.292 81.2734 126.969H78.9453C78.9453 126.635 78.875 126.344 78.7344 126.094C78.599 125.839 78.3906 125.638 78.1094 125.492C77.8333 125.346 77.4844 125.273 77.0625 125.273C76.6562 125.273 76.3177 125.336 76.0469 125.461C75.776 125.581 75.5729 125.745 75.4375 125.953C75.3021 126.156 75.2344 126.385 75.2344 126.641C75.2344 126.833 75.2812 127.008 75.375 127.164C75.474 127.32 75.6198 127.466 75.8125 127.602C76.0052 127.737 76.2422 127.865 76.5234 127.984C76.8047 128.104 77.1302 128.221 77.5 128.336C78.1198 128.523 78.6641 128.734 79.1328 128.969C79.6068 129.203 80.0026 129.466 80.3203 129.758C80.638 130.049 80.8776 130.38 81.0391 130.75C81.2005 131.12 81.2812 131.539 81.2812 132.008C81.2812 132.503 81.1849 132.945 80.9922 133.336C80.7995 133.727 80.5208 134.057 80.1562 134.328C79.7917 134.599 79.3568 134.805 78.8516 134.945C78.3464 135.086 77.7812 135.156 77.1562 135.156C76.5938 135.156 76.0391 135.083 75.4922 134.938C74.9453 134.786 74.4479 134.56 74 134.258C73.5573 133.956 73.2031 133.57 72.9375 133.102C72.6719 132.633 72.5391 132.078 72.5391 131.438H74.8906C74.8906 131.792 74.9453 132.091 75.0547 132.336C75.1641 132.581 75.3177 132.779 75.5156 132.93C75.7188 133.081 75.9583 133.19 76.2344 133.258C76.5156 133.326 76.8229 133.359 77.1562 133.359C77.5625 133.359 77.8958 133.302 78.1562 133.188C78.4219 133.073 78.6172 132.914 78.7422 132.711C78.8724 132.508 78.9375 132.279 78.9375 132.023ZM86.8253 123.625H88.8097L91.7316 131.977L94.6534 123.625H96.6378L92.5284 135H90.9347L86.8253 123.625ZM85.755 123.625H87.7316L88.0909 131.766V135H85.755V123.625ZM95.7316 123.625H97.7159V135H95.3722V131.766L95.7316 123.625ZM107.416 125.57L104.323 135H101.83L106.057 123.625H107.643L107.416 125.57ZM109.987 135L106.885 125.57L106.635 123.625H108.237L112.487 135H109.987ZM109.846 130.766V132.602H103.838V130.766H109.846ZM116.421 123.625H120.663C121.533 123.625 122.281 123.755 122.906 124.016C123.536 124.276 124.02 124.661 124.359 125.172C124.697 125.682 124.867 126.31 124.867 127.055C124.867 127.664 124.762 128.188 124.554 128.625C124.351 129.057 124.062 129.419 123.687 129.711C123.317 129.997 122.882 130.227 122.382 130.398L121.64 130.789H117.952L117.937 128.961H120.679C121.091 128.961 121.432 128.888 121.702 128.742C121.973 128.596 122.176 128.393 122.312 128.133C122.452 127.872 122.523 127.57 122.523 127.227C122.523 126.862 122.455 126.547 122.32 126.281C122.184 126.016 121.979 125.812 121.702 125.672C121.426 125.531 121.08 125.461 120.663 125.461H118.765V135H116.421V123.625ZM122.781 135L120.187 129.93L122.663 129.914L125.288 134.891V135H122.781ZM134.168 123.625V135H131.833V123.625H134.168ZM137.668 123.625V125.461H128.387V123.625H137.668ZM150.671 123.625V135H148.327V123.625H150.671ZM155.202 128.484V130.312H150.03V128.484H155.202ZM155.749 123.625V125.461H150.03V123.625H155.749ZM162.48 123.625V135H160.144V123.625H162.48ZM176.813 123.625V135H174.47L169.899 127.375V135H167.556V123.625H169.899L174.478 131.258V123.625H176.813ZM186.498 125.57L183.404 135H180.912L185.139 123.625H186.725L186.498 125.57ZM189.068 135L185.967 125.57L185.717 123.625H187.318L191.568 135H189.068ZM188.928 130.766V132.602H182.92V130.766H188.928ZM204.761 123.625V135H202.417L197.847 127.375V135H195.503V123.625H197.847L202.425 131.258V123.625H204.761ZM216.274 131.227H218.61C218.563 131.992 218.352 132.672 217.977 133.266C217.607 133.859 217.089 134.323 216.422 134.656C215.761 134.99 214.964 135.156 214.032 135.156C213.302 135.156 212.649 135.031 212.071 134.781C211.493 134.526 210.998 134.161 210.586 133.688C210.18 133.214 209.87 132.641 209.657 131.969C209.443 131.297 209.336 130.544 209.336 129.711V128.922C209.336 128.089 209.446 127.336 209.664 126.664C209.888 125.987 210.206 125.411 210.618 124.938C211.034 124.464 211.532 124.099 212.11 123.844C212.688 123.589 213.334 123.461 214.047 123.461C214.995 123.461 215.795 123.633 216.446 123.977C217.102 124.32 217.61 124.794 217.969 125.398C218.334 126.003 218.552 126.69 218.625 127.461H216.282C216.256 127.003 216.164 126.615 216.008 126.297C215.852 125.974 215.615 125.732 215.297 125.57C214.985 125.404 214.568 125.32 214.047 125.32C213.657 125.32 213.315 125.393 213.024 125.539C212.732 125.685 212.487 125.906 212.289 126.203C212.091 126.5 211.943 126.875 211.844 127.328C211.75 127.776 211.703 128.302 211.703 128.906V129.711C211.703 130.299 211.748 130.818 211.836 131.266C211.925 131.708 212.06 132.083 212.243 132.391C212.43 132.693 212.67 132.922 212.961 133.078C213.258 133.229 213.615 133.305 214.032 133.305C214.521 133.305 214.925 133.227 215.243 133.07C215.56 132.914 215.802 132.682 215.969 132.375C216.141 132.068 216.243 131.685 216.274 131.227ZM230.662 133.172V135H224.607V133.172H230.662ZM225.372 123.625V135H223.029V123.625H225.372ZM229.872 128.258V130.039H224.607V128.258H229.872ZM230.654 123.625V125.461H224.607V123.625H230.654Z" fill="#52555F"/>
</svg>
