<svg width="183" height="64" viewBox="0 0 183 64" fill="none" xmlns="http://www.w3.org/2000/svg">
<path fill-rule="evenodd" clip-rule="evenodd" d="M8.68835 26.5354L12.2528 22.6244L19.9263 36.0406H30.2236L18.045 15.941L30.2236 0H19.4807L11.7082 11.3122L8.68835 15.8915V0H0V36.0406H8.68835V26.5354ZM46.3379 33.6395C46.5689 34.6957 46.833 35.496 47.13 36.0406H55.4718V35.6198C54.7457 34.3161 54.3662 32.4349 54.3332 29.9761V18.1193C54.2836 15.2149 53.2688 12.9294 51.2885 11.2627C49.3083 9.59597 46.6102 8.76261 43.1942 8.76261C39.7783 8.76261 36.9647 9.57122 34.7534 11.1884C32.5586 12.8056 31.4612 14.9096 31.4612 17.5005H39.8031C39.8031 15.5532 40.7932 14.5796 42.7734 14.5796C44.9022 14.5796 45.9666 15.809 45.9666 18.2678V19.6788H43.3923C39.2997 19.6788 36.1808 20.4213 34.0356 21.9065C31.8903 23.3917 30.8177 25.5865 30.8177 28.4909C30.8177 30.8012 31.7005 32.7237 33.4663 34.2584C35.232 35.7765 37.3773 36.5356 39.9021 36.5356C42.6579 36.5356 44.8032 35.5703 46.3379 33.6395ZM44.4814 29.9266C43.8048 30.3721 42.9467 30.5949 41.9071 30.5949C41.115 30.5949 40.4631 30.3639 39.9516 29.9018C39.44 29.4232 39.1842 28.8044 39.1842 28.0453C39.1842 25.438 40.6364 24.1343 43.5408 24.1343H45.9666V28.4166C45.6696 28.9777 45.1745 29.481 44.4814 29.9266ZM83.8389 22.8472C83.8389 27.0057 82.8983 30.3309 81.017 32.8227C79.1523 35.298 76.6275 36.5356 73.4426 36.5356C70.9838 36.5356 68.9623 35.6363 67.3781 33.8376V46.3379H59.0363V9.25768H66.8335L67.081 11.733C68.6817 9.75274 70.7857 8.76261 73.3931 8.76261C76.6935 8.76261 79.2596 9.98377 81.0913 12.4261C82.923 14.8519 83.8389 18.1936 83.8389 22.4511V22.8472ZM75.4971 22.3273C75.4971 17.5747 74.1109 15.1984 71.3386 15.1984C69.3583 15.1984 68.0381 15.908 67.3781 17.3272V27.872C68.1042 29.3572 69.4408 30.0998 71.3881 30.0998C74.0449 30.0998 75.4146 27.806 75.4971 23.2185V22.3273ZM96.3392 36.5356C99.3426 36.5356 101.727 35.4053 103.493 33.1445L103.74 36.0406H111.562V9.25768H103.171V28.0453C102.363 29.415 101.001 30.0998 99.0868 30.0998C96.8591 30.0998 95.7452 28.9529 95.7452 26.6591V9.25768H87.4034V26.6096C87.4034 29.811 88.1542 32.2699 89.6559 33.9861C91.1741 35.6858 93.4019 36.5356 96.3392 36.5356ZM130.177 28.5156C130.177 27.806 129.805 27.2367 129.063 26.8077C128.32 26.3786 126.909 25.933 124.83 25.471C122.751 25.0089 121.035 24.4066 119.681 23.664C118.328 22.9049 117.297 21.989 116.587 20.9164C115.878 19.8438 115.523 18.6144 115.523 17.2282C115.523 14.7694 116.538 12.7479 118.568 11.1637C120.272 9.81955 122.419 9.03976 125.007 8.82431V2.74128H128.983V8.90361C131.404 9.19751 133.428 9.95086 135.053 11.1637C137.198 12.7644 138.271 14.8684 138.271 17.4757H129.905C129.905 15.3304 128.774 14.2578 126.513 14.2578C125.639 14.2578 124.904 14.5053 124.31 15.0004C123.716 15.479 123.419 16.0813 123.419 16.8074C123.419 17.55 123.782 18.1523 124.508 18.6144C125.234 19.0764 126.39 19.456 127.974 19.753C129.574 20.05 130.977 20.4048 132.182 20.8174C136.208 22.2036 138.222 24.6871 138.222 28.2681C138.222 30.7104 137.132 32.6989 134.954 34.2336C133.328 35.388 131.338 36.1083 128.983 36.3943V42.5017H125.007V36.4713C123.324 36.326 121.788 35.9349 120.399 35.298C118.601 34.4729 117.198 33.3507 116.191 31.9316C115.185 30.5124 114.681 29.0189 114.681 27.4512H122.479C122.512 28.6889 122.924 29.5965 123.716 30.1741C124.508 30.7352 125.523 31.0157 126.761 31.0157C127.9 31.0157 128.749 30.7847 129.31 30.3226C129.888 29.8605 130.177 29.2582 130.177 28.5156ZM151.861 9.25768V2.59908H143.519V9.25768H140.103V15.0499H143.519V28.3424C143.519 31.0982 144.204 33.1527 145.573 34.5059C146.943 35.8591 149.063 36.5356 151.935 36.5356C153.569 36.5356 155.136 36.2964 156.638 35.8178V29.8523C156.077 29.9513 155.384 30.0008 154.559 30.0008C153.486 30.0008 152.768 29.8028 152.405 29.4067C152.042 29.0107 151.861 28.3093 151.861 27.3027V15.0499H156.267V9.25768H151.861ZM174.658 36.0406C174.361 35.496 174.097 34.6957 173.866 33.6395C172.331 35.5703 170.186 36.5356 167.43 36.5356C164.905 36.5356 162.76 35.7765 160.994 34.2584C159.229 32.7237 158.346 30.8012 158.346 28.4909C158.346 25.5865 159.419 23.3917 161.564 21.9065C163.709 20.4213 166.828 19.6788 170.92 19.6788H173.495V18.2678C173.495 15.809 172.43 14.5796 170.302 14.5796C168.321 14.5796 167.331 15.5532 167.331 17.5005H158.989C158.989 14.9096 160.087 12.8056 162.282 11.1884C164.493 9.57122 167.307 8.76261 170.722 8.76261C174.138 8.76261 176.836 9.59597 178.817 11.2627C180.797 12.9294 181.812 15.2149 181.861 18.1193V29.9761C181.894 32.4349 182.274 34.3161 183 35.6198V36.0406H174.658ZM169.435 30.5949C170.475 30.5949 171.333 30.3721 172.01 29.9266C172.703 29.481 173.198 28.9777 173.495 28.4166V24.1343H171.069C168.165 24.1343 166.712 25.438 166.712 28.0453C166.712 28.8044 166.968 29.4232 167.48 29.9018C167.991 30.3639 168.643 30.5949 169.435 30.5949Z" fill="black"/>
<path d="M16.6367 60.5815C16.6367 60.4165 16.6113 60.2684 16.5605 60.1372C16.514 60.0018 16.4251 59.8791 16.2939 59.769C16.1628 59.6548 15.9787 59.5426 15.7417 59.4326C15.5047 59.3226 15.1979 59.2083 14.8213 59.0898C14.4023 58.9544 14.0046 58.8021 13.6279 58.6328C13.2555 58.4635 12.9255 58.2668 12.6377 58.0425C12.3542 57.814 12.1299 57.5495 11.9648 57.249C11.804 56.9486 11.7236 56.5994 11.7236 56.2017C11.7236 55.8166 11.8083 55.4674 11.9775 55.1543C12.1468 54.8369 12.3838 54.5661 12.6885 54.3418C12.9932 54.1133 13.3529 53.9377 13.7676 53.8149C14.1865 53.6922 14.6457 53.6309 15.145 53.6309C15.8263 53.6309 16.4209 53.7536 16.9287 53.999C17.4365 54.2445 17.8301 54.5809 18.1094 55.0083C18.3929 55.4357 18.5347 55.9245 18.5347 56.4746H16.6431C16.6431 56.2038 16.5859 55.9668 16.4717 55.7637C16.3617 55.5563 16.1924 55.3934 15.9639 55.2749C15.7396 55.1564 15.4561 55.0972 15.1133 55.0972C14.7832 55.0972 14.5081 55.1479 14.2881 55.2495C14.068 55.3468 13.903 55.4801 13.793 55.6494C13.6829 55.8145 13.6279 56.0007 13.6279 56.208C13.6279 56.3646 13.666 56.5063 13.7422 56.6333C13.8226 56.7603 13.9411 56.8787 14.0977 56.9888C14.2542 57.0988 14.4468 57.2025 14.6753 57.2998C14.9038 57.3971 15.1683 57.4924 15.4688 57.5854C15.9723 57.7378 16.4146 57.9092 16.7954 58.0996C17.1805 58.29 17.5021 58.5037 17.7603 58.7407C18.0184 58.9777 18.2131 59.2464 18.3442 59.5469C18.4754 59.8473 18.541 60.188 18.541 60.5688C18.541 60.9709 18.4627 61.3306 18.3062 61.6479C18.1496 61.9653 17.9232 62.234 17.627 62.4541C17.3307 62.6742 16.9774 62.8413 16.5669 62.9556C16.1564 63.0698 15.6973 63.127 15.1895 63.127C14.7324 63.127 14.2817 63.0677 13.8374 62.9492C13.3931 62.8265 12.9889 62.6424 12.625 62.397C12.2653 62.1515 11.9775 61.8384 11.7617 61.4575C11.5459 61.0767 11.438 60.626 11.438 60.1055H13.3486C13.3486 60.3932 13.3931 60.6366 13.4819 60.8354C13.5708 61.0343 13.6956 61.1951 13.8564 61.3179C14.0215 61.4406 14.2161 61.5295 14.4404 61.5845C14.6689 61.6395 14.9186 61.667 15.1895 61.667C15.5195 61.667 15.7904 61.6204 16.002 61.5273C16.2178 61.4342 16.3765 61.3052 16.478 61.1401C16.5838 60.9751 16.6367 60.7889 16.6367 60.5815ZM22.6556 53.7578H24.2679L26.6419 60.5435L29.0159 53.7578H30.6282L27.2894 63H25.9944L22.6556 53.7578ZM21.7859 53.7578H23.3919L23.6839 60.3721V63H21.7859V53.7578ZM29.8919 53.7578H31.5042V63H29.5999V60.3721L29.8919 53.7578ZM38.9957 55.3384L36.482 63H34.4571L37.8912 53.7578H39.1798L38.9957 55.3384ZM41.0841 63L38.5641 55.3384L38.3609 53.7578H39.6622L43.1153 63H41.0841ZM40.9698 59.5596V61.0513H36.0885V59.5596H40.9698ZM45.9223 53.7578H49.369C50.0757 53.7578 50.683 53.8636 51.1908 54.0752C51.7029 54.2868 52.0964 54.5999 52.3715 55.0146C52.6465 55.4294 52.7841 55.9393 52.7841 56.5444C52.7841 57.0396 52.6994 57.4648 52.5302 57.8203C52.3651 58.1715 52.1303 58.4657 51.8256 58.7026C51.5251 58.9354 51.1718 59.1216 50.7655 59.2612L50.1625 59.5786H47.1664L47.1537 58.0933H49.3817C49.716 58.0933 49.9932 58.034 50.2133 57.9155C50.4333 57.797 50.5984 57.632 50.7084 57.4204C50.8227 57.2088 50.8798 56.9634 50.8798 56.6841C50.8798 56.3879 50.8248 56.1318 50.7147 55.916C50.6047 55.7002 50.4376 55.5352 50.2133 55.4209C49.989 55.3066 49.7076 55.2495 49.369 55.2495H47.8266V63H45.9223V53.7578ZM51.0893 63L48.9818 58.8804L50.994 58.8677L53.1269 62.9111V63H51.0893ZM59.9519 53.7578V63H58.0539V53.7578H59.9519ZM62.7956 53.7578V55.2495H55.2546V53.7578H62.7956ZM72.5799 53.7578V63H70.6756V53.7578H72.5799ZM76.2615 57.7061V59.1914H72.0594V57.7061H76.2615ZM76.7059 53.7578V55.2495H72.0594V53.7578H76.7059ZM81.7853 53.7578V63H79.8873V53.7578H81.7853ZM93.0409 53.7578V63H91.1366L87.4232 56.8047V63H85.5189V53.7578H87.4232L91.143 59.9595V53.7578H93.0409ZM100.52 55.3384L98.0061 63H95.9812L99.4152 53.7578H100.704L100.52 55.3384ZM102.608 63L100.088 55.3384L99.885 53.7578H101.186L104.639 63H102.608ZM102.494 59.5596V61.0513H97.6125V59.5596H102.494ZM114.968 53.7578V63H113.064L109.351 56.8047V63H107.446V53.7578H109.351L113.07 59.9595V53.7578H114.968ZM123.932 59.9341H125.83C125.792 60.5562 125.621 61.1084 125.316 61.5908C125.016 62.0732 124.595 62.4499 124.053 62.7207C123.516 62.9915 122.868 63.127 122.111 63.127C121.518 63.127 120.987 63.0254 120.517 62.8223C120.048 62.6149 119.646 62.3187 119.311 61.9336C118.981 61.5485 118.729 61.083 118.556 60.5371C118.382 59.9912 118.296 59.3797 118.296 58.7026V58.0615C118.296 57.3844 118.385 56.7729 118.562 56.2271C118.744 55.6769 119.002 55.2093 119.337 54.8242C119.675 54.4391 120.079 54.1429 120.549 53.9355C121.019 53.7282 121.544 53.6245 122.123 53.6245C122.894 53.6245 123.543 53.7642 124.072 54.0435C124.605 54.3228 125.018 54.7078 125.31 55.1987C125.606 55.6896 125.784 56.2482 125.843 56.8745H123.939C123.918 56.5021 123.844 56.1868 123.717 55.9287C123.59 55.6663 123.397 55.4696 123.139 55.3384C122.885 55.203 122.547 55.1353 122.123 55.1353C121.806 55.1353 121.529 55.1945 121.292 55.313C121.055 55.4315 120.856 55.6113 120.695 55.8525C120.534 56.0938 120.414 56.3984 120.333 56.7666C120.257 57.1305 120.219 57.5579 120.219 58.0488V58.7026C120.219 59.1808 120.255 59.6019 120.327 59.9658C120.399 60.3255 120.509 60.6302 120.657 60.8799C120.809 61.1253 121.004 61.3115 121.241 61.4385C121.482 61.5612 121.772 61.6226 122.111 61.6226C122.508 61.6226 122.836 61.5591 123.095 61.4321C123.353 61.3052 123.549 61.1169 123.685 60.8672C123.825 60.6175 123.907 60.3065 123.932 59.9341ZM135.233 61.5146V63H130.313V61.5146H135.233ZM130.935 53.7578V63H129.031V53.7578H130.935ZM134.591 57.522V58.9692H130.313V57.522H134.591ZM135.226 53.7578V55.2495H130.313V53.7578H135.226Z" fill="#52555F"/>
</svg>
